<svg width="16" height="17" viewBox="0 0 16 17" fill="none" xmlns="http://www.w3.org/2000/svg">
<g clip-path="url(#clip0_36_364)">
<path d="M7.99951 2.99994C8.07096 2.99994 8.14183 3.01403 8.20752 3.04095L8.27197 3.0722C8.33402 3.10772 8.38849 3.15483 8.43213 3.21088L8.47217 3.27045L13.9331 12.7548L13.936 12.7597C13.9778 12.8315 13.9996 12.913 13.9995 12.996C13.9995 13.0586 13.9874 13.1204 13.9634 13.1777L13.936 13.2333L13.9321 13.2392C13.886 13.3192 13.819 13.3857 13.7388 13.4316C13.6787 13.4658 13.6126 13.4876 13.5444 13.496L13.4751 13.4999H2.5249C2.43245 13.5008 2.34052 13.4775 2.26025 13.4316C2.20025 13.3972 2.14783 13.3513 2.10596 13.2968L2.06787 13.2392L2.06494 13.2333L2.03662 13.1777C2.01282 13.1206 2.00051 13.0592 2.00049 12.997C2.00049 12.9345 2.01264 12.8726 2.03662 12.8154L2.06494 12.7597L2.06787 12.7548L7.52686 3.26947L7.52783 3.27045C7.5641 3.20869 7.6118 3.15432 7.66846 3.11127L7.72803 3.0722C7.79021 3.03663 7.85861 3.01402 7.9292 3.00482L7.99951 2.99994Z" stroke="#FFD006" strokeWidth="2"/>
</g>
<defs>
<clipPath id="clip0_36_364">
<rect width="16" height="16" fill="white" transform="translate(0 0.5)"/>
</clipPath>
</defs>
</svg>
